<svg width="33" height="33" viewBox="0 0 33 33" fill="none" xmlns="http://www.w3.org/2000/svg">
<path d="M16.5 0C7.40135 0 0 7.40135 0 16.5C0 25.5987 7.40135 33 16.5 33C25.5987 33 33 25.5974 33 16.5C33 7.40263 25.5987 0 16.5 0ZM16.5 30.4439C8.81235 30.4439 2.55615 24.1889 2.55615 16.5C2.55615 8.81106 8.81235 2.55615 16.5 2.55615C24.1876 2.55615 30.4439 8.81106 30.4439 16.5C30.4439 24.1889 24.1889 30.4439 16.5 30.4439Z" fill="#FFE600"/>
<path d="M22.8904 15.1069H17.7782V9.99463C17.7782 9.28912 17.2068 8.71652 16.5 8.71652C15.7933 8.71652 15.2219 9.28912 15.2219 9.99463V15.1069H10.1096C9.40286 15.1069 8.83154 15.6795 8.83154 16.385C8.83154 17.0905 9.40286 17.6631 10.1096 17.6631H15.2219V22.7754C15.2219 23.4809 15.7933 24.0535 16.5 24.0535C17.2068 24.0535 17.7782 23.4809 17.7782 22.7754V17.6631H22.8904C23.5972 17.6631 24.1686 17.0905 24.1686 16.385C24.1686 15.6795 23.5972 15.1069 22.8904 15.1069Z" fill="#FFE600"/>
</svg>
